<?xml version="1.0" standalone="no"?>
<!DOCTYPE svg PUBLIC "-//W3C//DTD SVG 20010904//EN"
 "http://www.w3.org/TR/2001/REC-SVG-20010904/DTD/svg10.dtd">
<svg version="1.0" xmlns="http://www.w3.org/2000/svg"
 width="480.000000pt" height="480.000000pt" viewBox="0 0 480.000000 480.000000"
 preserveAspectRatio="xMidYMid meet">
<metadata>
Created by potrace 1.14, written by Peter Selinger 2001-2017
</metadata>
<g transform="translate(0.000000,480.000000) scale(0.100000,-0.100000)"
fill="#000000" stroke="none">
<path d="M2210 4646 c-3 -2 -36 -7 -75 -10 -133 -13 -415 -80 -510 -121 -16
-7 -46 -18 -65 -25 -64 -24 -264 -126 -348 -178 -303 -188 -596 -490 -759
-782 -67 -120 -82 -150 -115 -226 -63 -143 -112 -300 -143 -449 -36 -176 -44
-280 -40 -500 4 -217 5 -229 36 -385 65 -333 201 -640 405 -917 74 -100 105
-135 235 -263 348 -345 827 -574 1312 -627 91 -10 421 -10 508 -1 500 57 968
281 1325 633 219 217 395 474 498 730 16 39 34 84 41 100 35 81 97 335 120
490 14 95 17 400 6 503 -62 550 -277 1001 -661 1382 -348 346 -792 564 -1290
635 -53 7 -474 18 -480 11z"/>
</g>
</svg>
